<svg id="visual" viewBox="0 0 540 960" width="540" height="960" xmlns="http://www.w3.org/2000/svg" xmlns:xlink="http://www.w3.org/1999/xlink" version="1.1"><rect x="0" y="0" width="540" height="960" fill="#a7e7ff"></rect><defs><linearGradient id="grad1_0" x1="0%" y1="100%" x2="100%" y2="0%"><stop offset="30%" stop-color="#1e70ff" stop-opacity="1"></stop><stop offset="70%" stop-color="#1e70ff" stop-opacity="1"></stop></linearGradient></defs><defs><linearGradient id="grad1_1" x1="0%" y1="100%" x2="100%" y2="0%"><stop offset="30%" stop-color="#1e70ff" stop-opacity="1"></stop><stop offset="70%" stop-color="#0085ff" stop-opacity="1"></stop></linearGradient></defs><defs><linearGradient id="grad1_2" x1="0%" y1="100%" x2="100%" y2="0%"><stop offset="30%" stop-color="#0099ff" stop-opacity="1"></stop><stop offset="70%" stop-color="#0085ff" stop-opacity="1"></stop></linearGradient></defs><defs><linearGradient id="grad1_3" x1="0%" y1="100%" x2="100%" y2="0%"><stop offset="30%" stop-color="#0099ff" stop-opacity="1"></stop><stop offset="70%" stop-color="#00abff" stop-opacity="1"></stop></linearGradient></defs><defs><linearGradient id="grad1_4" x1="0%" y1="100%" x2="100%" y2="0%"><stop offset="30%" stop-color="#2cbbff" stop-opacity="1"></stop><stop offset="70%" stop-color="#00abff" stop-opacity="1"></stop></linearGradient></defs><defs><linearGradient id="grad1_5" x1="0%" y1="100%" x2="100%" y2="0%"><stop offset="30%" stop-color="#2cbbff" stop-opacity="1"></stop><stop offset="70%" stop-color="#5ccbff" stop-opacity="1"></stop></linearGradient></defs><defs><linearGradient id="grad1_6" x1="0%" y1="100%" x2="100%" y2="0%"><stop offset="30%" stop-color="#82d9ff" stop-opacity="1"></stop><stop offset="70%" stop-color="#5ccbff" stop-opacity="1"></stop></linearGradient></defs><defs><linearGradient id="grad1_7" x1="0%" y1="100%" x2="100%" y2="0%"><stop offset="30%" stop-color="#82d9ff" stop-opacity="1"></stop><stop offset="70%" stop-color="#a7e7ff" stop-opacity="1"></stop></linearGradient></defs><defs><linearGradient id="grad2_0" x1="0%" y1="100%" x2="100%" y2="0%"><stop offset="30%" stop-color="#1e70ff" stop-opacity="1"></stop><stop offset="70%" stop-color="#1e70ff" stop-opacity="1"></stop></linearGradient></defs><defs><linearGradient id="grad2_1" x1="0%" y1="100%" x2="100%" y2="0%"><stop offset="30%" stop-color="#0085ff" stop-opacity="1"></stop><stop offset="70%" stop-color="#1e70ff" stop-opacity="1"></stop></linearGradient></defs><defs><linearGradient id="grad2_2" x1="0%" y1="100%" x2="100%" y2="0%"><stop offset="30%" stop-color="#0085ff" stop-opacity="1"></stop><stop offset="70%" stop-color="#0099ff" stop-opacity="1"></stop></linearGradient></defs><defs><linearGradient id="grad2_3" x1="0%" y1="100%" x2="100%" y2="0%"><stop offset="30%" stop-color="#00abff" stop-opacity="1"></stop><stop offset="70%" stop-color="#0099ff" stop-opacity="1"></stop></linearGradient></defs><defs><linearGradient id="grad2_4" x1="0%" y1="100%" x2="100%" y2="0%"><stop offset="30%" stop-color="#00abff" stop-opacity="1"></stop><stop offset="70%" stop-color="#2cbbff" stop-opacity="1"></stop></linearGradient></defs><defs><linearGradient id="grad2_5" x1="0%" y1="100%" x2="100%" y2="0%"><stop offset="30%" stop-color="#5ccbff" stop-opacity="1"></stop><stop offset="70%" stop-color="#2cbbff" stop-opacity="1"></stop></linearGradient></defs><defs><linearGradient id="grad2_6" x1="0%" y1="100%" x2="100%" y2="0%"><stop offset="30%" stop-color="#5ccbff" stop-opacity="1"></stop><stop offset="70%" stop-color="#82d9ff" stop-opacity="1"></stop></linearGradient></defs><defs><linearGradient id="grad2_7" x1="0%" y1="100%" x2="100%" y2="0%"><stop offset="30%" stop-color="#a7e7ff" stop-opacity="1"></stop><stop offset="70%" stop-color="#82d9ff" stop-opacity="1"></stop></linearGradient></defs><g transform="translate(540, 960)"><path d="M-432 0C-426.1 -84.8 -420.1 -169.7 -374.1 -216C-328.1 -262.3 -242 -270.1 -173 -299.6C-104 -329.2 -52 -380.6 0 -432L0 0Z" fill="#95e0ff"></path><path d="M-378 0C-372.8 -74.2 -367.6 -148.5 -327.4 -189C-287.1 -229.5 -211.8 -236.3 -151.4 -262.2C-91 -288.1 -45.5 -333 0 -378L0 0Z" fill="#70d2ff"></path><path d="M-324 0C-319.5 -63.6 -315.1 -127.3 -280.6 -162C-246.1 -196.7 -181.5 -202.6 -129.8 -224.7C-78 -246.9 -39 -285.5 0 -324L0 0Z" fill="#46c3ff"></path><path d="M-270 0C-266.3 -53 -262.6 -106.1 -233.8 -135C-205.1 -163.9 -151.3 -168.8 -108.1 -187.3C-65 -205.8 -32.5 -237.9 0 -270L0 0Z" fill="#00b3ff"></path><path d="M-216 0C-213 -42.4 -210.1 -84.8 -187.1 -108C-164.1 -131.2 -121 -135 -86.5 -149.8C-52 -164.6 -26 -190.3 0 -216L0 0Z" fill="#00a2ff"></path><path d="M-162 0C-159.8 -31.8 -157.5 -63.6 -140.3 -81C-123 -98.4 -90.8 -101.3 -64.9 -112.4C-39 -123.5 -19.5 -142.7 0 -162L0 0Z" fill="#008fff"></path><path d="M-108 0C-106.5 -21.2 -105 -42.4 -93.5 -54C-82 -65.6 -60.5 -67.5 -43.3 -74.9C-26 -82.3 -13 -95.2 0 -108L0 0Z" fill="#007bff"></path><path d="M-54 0C-53.3 -10.6 -52.5 -21.2 -46.8 -27C-41 -32.8 -30.3 -33.8 -21.6 -37.5C-13 -41.2 -6.5 -47.6 0 -54L0 0Z" fill="#1e70ff"></path></g><g transform="translate(0, 0)"><path d="M432 0C431.3 94 430.7 187.9 374.1 216C317.6 244.1 205.2 206.2 133.5 231.2C61.8 256.2 30.9 344.1 0 432L0 0Z" fill="#95e0ff"></path><path d="M378 0C377.4 82.2 376.8 164.4 327.4 189C277.9 213.6 179.5 180.4 116.8 202.3C54.1 224.2 27.1 301.1 0 378L0 0Z" fill="#70d2ff"></path><path d="M324 0C323.5 70.5 323 141 280.6 162C238.2 183 153.9 154.7 100.1 173.4C46.4 192.2 23.2 258.1 0 324L0 0Z" fill="#46c3ff"></path><path d="M270 0C269.6 58.7 269.2 117.5 233.8 135C198.5 152.5 128.2 128.9 83.4 144.5C38.6 160.2 19.3 215.1 0 270L0 0Z" fill="#00b3ff"></path><path d="M216 0C215.7 47 215.3 94 187.1 108C158.8 122 102.6 103.1 66.8 115.6C30.9 128.1 15.5 172.1 0 216L0 0Z" fill="#00a2ff"></path><path d="M162 0C161.7 35.2 161.5 70.5 140.3 81C119.1 91.5 76.9 77.3 50.1 86.7C23.2 96.1 11.6 129 0 162L0 0Z" fill="#008fff"></path><path d="M108 0C107.8 23.5 107.7 47 93.5 54C79.4 61 51.3 51.6 33.4 57.8C15.5 64.1 7.7 86 0 108L0 0Z" fill="#007bff"></path><path d="M54 0C53.9 11.7 53.8 23.5 46.8 27C39.7 30.5 25.6 25.8 16.7 28.9C7.7 32 3.9 43 0 54L0 0Z" fill="#1e70ff"></path></g></svg>