<svg width="375" height="269" viewBox="0 0 375 269" fill="none" xmlns="http://www.w3.org/2000/svg">
<g filter="url(#filter0_d_616_3)">
<path d="M218.661 149.24H182.046C182.046 141.755 182.556 135.163 183.577 129.465C184.682 123.681 186.554 118.493 189.19 113.9C191.827 109.307 195.399 105.055 199.907 101.142C203.905 97.825 207.349 94.6355 210.241 91.5736C213.133 88.5117 215.344 85.4072 216.875 82.2603C218.406 79.1133 219.172 75.7537 219.172 72.1815C219.172 67.7587 218.534 64.1439 217.258 61.3372C216.067 58.5304 214.238 56.4466 211.772 55.0857C209.39 53.6398 206.371 52.9169 202.714 52.9169C199.737 52.9169 196.93 53.6398 194.293 55.0857C191.742 56.5317 189.658 58.7856 188.042 61.8475C186.426 64.8243 185.533 68.7793 185.363 73.7124H142.113C142.368 61.0395 145.175 50.748 150.534 42.8381C155.977 34.8431 163.207 29.0169 172.222 25.3596C181.323 21.6173 191.487 19.7461 202.714 19.7461C215.132 19.7461 225.806 21.6598 234.736 25.4872C243.667 29.3146 250.514 35.0132 255.277 42.5829C260.04 50.0676 262.421 59.2959 262.421 70.2678C262.421 77.5823 261.018 83.9613 258.211 89.4047C255.489 94.7631 251.79 99.7812 247.112 104.459C242.519 109.052 237.373 113.985 231.674 119.258C226.741 123.596 223.382 128.019 221.596 132.527C219.809 136.95 218.831 142.521 218.661 149.24ZM176.815 188.024C176.815 181.9 179.026 176.797 183.449 172.714C187.872 168.547 193.613 166.463 200.672 166.463C207.732 166.463 213.473 168.547 217.896 172.714C222.319 176.797 224.53 181.9 224.53 188.024C224.53 194.148 222.319 199.294 217.896 203.461C213.473 207.544 207.732 209.585 200.672 209.585C193.613 209.585 187.872 207.544 183.449 203.461C179.026 199.294 176.815 194.148 176.815 188.024Z" fill="#FFB184"/>
</g>
<g filter="url(#filter1_d_616_3)">
<path d="M296.838 187.021L276.272 176.074C278.51 171.87 280.767 168.32 283.044 165.425C285.394 162.507 287.996 160.152 290.85 158.361C293.705 156.57 296.982 155.249 300.684 154.399C303.921 153.731 306.809 152.97 309.349 152.114C311.889 151.259 314.059 150.177 315.86 148.867C317.661 147.557 319.095 145.899 320.163 143.892C321.485 141.408 322.208 139.187 322.33 137.229C322.501 135.297 322.097 133.58 321.118 132.078C320.213 130.554 318.733 129.245 316.679 128.152C315.007 127.262 313.214 126.829 311.301 126.852C309.435 126.902 307.591 127.545 305.768 128.781C303.97 129.97 302.286 131.924 300.716 134.644L276.424 121.714C280.356 114.672 285.009 109.731 290.384 106.89C295.832 104.027 301.634 102.916 307.792 103.557C314.022 104.176 320.29 106.164 326.596 109.521C333.571 113.233 338.994 117.499 342.866 122.319C346.738 127.139 348.879 132.387 349.291 138.062C349.729 143.69 348.308 149.586 345.027 155.748C342.84 159.857 340.145 163.02 336.941 165.238C333.81 167.434 330.232 169.147 326.206 170.375C322.253 171.582 317.888 172.814 313.11 174.072C309.043 175.034 305.834 176.514 303.483 178.511C301.157 180.462 298.942 183.298 296.838 187.021ZM261.738 196.294C263.569 192.855 266.337 190.649 270.042 189.679C273.772 188.66 277.619 189.206 281.584 191.317C285.55 193.428 288.151 196.314 289.389 199.978C290.653 203.593 290.369 207.12 288.538 210.56C286.707 214 283.927 216.229 280.197 217.247C276.492 218.218 272.657 217.648 268.692 215.537C264.727 213.427 262.113 210.564 260.849 206.948C259.611 203.285 259.907 199.734 261.738 196.294Z" fill="#CAB7FF"/>
</g>
<g filter="url(#filter2_d_616_3)">
<path d="M96.7718 187.021L117.338 176.074C115.1 171.87 112.842 168.32 110.565 165.425C108.215 162.507 105.613 160.152 102.759 158.361C99.9049 156.57 96.627 155.249 92.9253 154.399C89.6883 153.731 86.8 152.97 84.2603 152.114C81.7206 151.259 79.5504 150.177 77.7496 148.867C75.9488 147.557 74.5144 145.899 73.4464 143.892C72.1241 141.408 71.4016 139.187 71.2791 137.229C71.1087 135.297 71.5128 133.58 72.4913 132.078C73.3966 130.554 74.8764 129.245 76.9306 128.152C78.6026 127.262 80.3952 126.829 82.3085 126.852C84.1739 126.902 86.0182 127.545 87.8413 128.781C89.639 129.97 91.323 131.924 92.8935 134.644L117.186 121.714C113.253 114.672 108.6 109.731 103.225 106.89C97.7776 104.027 91.9751 102.916 85.8178 103.557C79.5873 104.176 73.3192 106.164 67.0133 109.521C60.0385 113.233 54.6153 117.499 50.7436 122.319C46.8718 127.139 44.7299 132.387 44.3179 138.062C43.8804 143.69 45.3018 149.586 48.5822 155.748C50.7691 159.857 53.4645 163.02 56.6684 165.238C59.7992 167.434 63.3776 169.147 67.4036 170.375C71.3565 171.582 75.7216 172.814 80.4989 174.072C84.5666 175.034 87.7759 176.514 90.1268 178.511C92.4523 180.462 94.6673 183.298 96.7718 187.021ZM131.871 196.294C130.04 192.855 127.273 190.649 123.568 189.679C119.838 188.66 115.99 189.206 112.025 191.317C108.06 193.428 105.458 196.314 104.22 199.978C102.957 203.593 103.24 207.12 105.071 210.56C106.902 214 109.683 216.229 113.413 217.247C117.117 218.218 120.952 217.648 124.917 215.537C128.883 213.427 131.497 210.564 132.76 206.948C133.998 203.285 133.702 199.734 131.871 196.294Z" fill="#FFA9D2"/>
</g>
<path d="M208.373 149.821L209.257 149.831L209.29 148.947C209.537 142.298 210.569 136.855 212.352 132.586L212.354 132.58C214.123 128.265 217.429 123.994 222.341 119.776L222.349 119.769L222.358 119.761C228.125 114.549 233.338 109.669 237.994 105.121C242.788 100.439 246.606 95.3901 249.439 89.9724C252.389 84.4126 253.892 77.9039 253.98 70.4742C254.111 59.3726 251.811 49.9385 247.028 42.2206C242.25 34.4253 235.322 28.5297 226.285 24.5297C217.261 20.5357 206.483 18.4811 193.976 18.3335C182.649 18.1998 172.345 19.9664 163.077 23.65C153.854 27.2656 146.413 33.1184 140.772 41.1957L140.771 41.1975C135.192 49.2275 132.234 59.6709 131.825 72.459L131.796 73.3842L132.721 73.3951L175.968 73.9056L176.845 73.9159L176.885 73.0404C177.11 68.1907 178.032 64.3998 179.59 61.6081L179.59 61.6082L179.595 61.5988C181.178 58.6829 183.172 56.5941 185.561 55.2761C188.08 53.9344 190.743 53.283 193.563 53.3163C197.105 53.3581 199.94 54.092 202.126 55.4546L202.142 55.4646L202.158 55.4739C204.417 56.7551 206.091 58.6957 207.178 61.3449L207.183 61.3556L207.187 61.3661C208.36 64.0294 208.947 67.5109 208.896 71.8559C208.855 75.2933 208.082 78.508 206.577 81.5111C205.058 84.5427 202.868 87.547 199.992 90.5213C197.095 93.5173 193.641 96.6412 189.627 99.8929L189.619 99.8992L189.612 99.9057C184.99 103.822 181.299 108.108 178.55 112.768C175.803 117.425 173.837 122.687 172.646 128.545L172.646 128.545L172.644 128.555C171.543 134.307 170.952 140.947 170.863 148.471L170.853 149.378L171.76 149.389L208.373 149.821ZM172.286 171.3C167.626 175.503 165.25 180.821 165.175 187.191C165.1 193.562 167.349 198.974 171.904 203.369L171.911 203.375C176.479 207.693 182.428 209.864 189.673 209.949C196.918 210.035 202.917 208.005 207.585 203.796L207.592 203.79C212.25 199.504 214.626 194.146 214.701 187.775C214.776 181.405 212.527 176.033 207.968 171.722C203.402 167.318 197.452 165.102 190.203 165.016C182.955 164.931 176.954 167.005 172.286 171.3Z" stroke="white" stroke-width="1.81447"/>
<path d="M290.885 184.272L291.378 184.542L291.661 184.055C293.788 180.395 295.995 177.646 298.272 175.781L298.275 175.779C300.559 173.884 303.693 172.473 307.713 171.573L307.72 171.571L307.727 171.569C312.525 170.366 316.911 169.184 320.886 168.021C324.979 166.825 328.633 165.131 331.844 162.935C335.163 160.694 337.953 157.487 340.224 153.341C343.616 147.144 345.146 141.157 344.766 135.392C344.413 129.585 342.285 124.203 338.405 119.255C334.531 114.314 329.091 109.937 322.11 106.115C315.788 102.653 309.472 100.565 303.165 99.8628C296.904 99.1361 290.975 100.199 285.392 103.049L285.391 103.05C279.856 105.892 275.073 110.873 271.02 117.934L270.726 118.445L271.243 118.728L295.381 131.944L295.87 132.212L296.155 131.732C297.731 129.076 299.382 127.222 301.092 126.12L301.092 126.12L301.097 126.116C302.859 124.952 304.603 124.375 306.339 124.349C308.155 124.348 309.845 124.778 311.419 125.64C313.396 126.723 314.769 127.983 315.589 129.401L315.595 129.412L315.602 129.422C316.487 130.817 316.847 132.407 316.666 134.22L316.665 134.228L316.665 134.235C316.527 136.081 315.816 138.212 314.488 140.638C313.438 142.556 312.042 144.13 310.299 145.367C308.539 146.616 306.412 147.649 303.907 148.459C301.384 149.276 298.51 149.998 295.283 150.624L295.283 150.624L295.271 150.627C291.504 151.445 288.149 152.748 285.212 154.544C282.277 156.338 279.6 158.706 277.179 161.64L277.175 161.645C274.837 164.547 272.519 168.1 270.22 172.299L269.943 172.805L270.449 173.083L290.885 184.272ZM264.193 185.547C260.32 186.514 257.396 188.791 255.449 192.346C253.502 195.902 253.147 199.614 254.392 203.445L254.393 203.45C255.668 207.241 258.361 210.239 262.404 212.453C266.448 214.668 270.424 215.321 274.305 214.353L274.311 214.351C278.208 213.336 281.145 211.038 283.092 207.482C285.038 203.926 285.381 200.237 284.109 196.452C282.862 192.613 280.182 189.59 276.136 187.374C272.091 185.159 268.1 184.53 264.193 185.547Z" stroke="white" stroke-width="1.15453"/>
<path d="M102.725 184.272L102.231 184.542L101.948 184.055C99.8217 180.395 97.6147 177.646 95.3369 175.781L95.334 175.779C93.0503 173.884 89.9165 172.473 85.8968 171.573L85.8896 171.571L85.8825 171.569C81.0848 170.366 76.6981 169.184 72.723 168.021C68.6308 166.825 64.9766 165.131 61.7655 162.935C58.4465 160.694 55.6564 157.487 53.3859 153.341C49.9929 147.144 48.4638 141.157 48.8434 135.392C49.1965 129.585 51.3247 124.203 55.2046 119.255C59.0788 114.314 64.5184 109.937 71.4991 106.115C77.8213 102.653 84.1371 100.565 90.444 99.8628C96.7052 99.1361 102.635 100.199 108.217 103.049L108.219 103.05C113.753 105.892 118.537 110.873 122.59 117.934L122.883 118.445L122.366 118.728L98.2285 131.944L97.7394 132.212L97.4548 131.732C95.8787 129.076 94.2275 127.222 92.5176 126.12L92.5175 126.12L92.5119 126.116C90.7508 124.952 89.0062 124.375 87.2705 124.349C85.4547 124.348 83.7643 124.778 82.1901 125.64C80.2134 126.723 78.8403 127.983 78.02 129.401L78.014 129.412L78.0076 129.422C77.122 130.817 76.7619 132.407 76.9433 134.22L76.944 134.228L76.9446 134.235C77.0821 136.081 77.7932 138.212 79.121 140.638C80.1716 142.556 81.5671 144.13 83.3103 145.367C85.0701 146.616 87.1978 147.649 89.7026 148.459C92.2256 149.276 95.0995 149.998 98.3263 150.624L98.3263 150.624L98.3388 150.627C102.105 151.445 105.46 152.748 108.397 154.544C111.333 156.338 114.01 158.706 116.431 161.64L116.435 161.645C118.772 164.547 121.09 168.1 123.389 172.299L123.666 172.805L123.16 173.083L102.725 184.272ZM129.416 185.547C133.29 186.514 136.214 188.791 138.16 192.346C140.107 195.902 140.462 199.614 139.218 203.445L139.216 203.45C137.941 207.241 135.249 210.239 131.205 212.453C127.161 214.668 123.185 215.321 119.304 214.353L119.299 214.351C115.401 213.336 112.465 211.038 110.518 207.482C108.571 203.926 108.228 200.237 109.5 196.452C110.748 192.613 113.427 189.59 117.473 187.374C121.519 185.159 125.51 184.53 129.416 185.547Z" stroke="white" stroke-width="1.15453"/>
<path d="M394 72C384.167 78 359.7 84.6 340.5 63C316.5 36 306.5 16 272 11" stroke="white" stroke-linecap="round"/>
<path d="M-19 210.5C-5.66667 204.5 26.4 197.8 48 219C75 245.5 91 261 124 251" stroke="white" stroke-linecap="round"/>
<circle cx="58.5" cy="28.5" r="12" stroke="white"/>
<circle cx="297.5" cy="233.5" r="3" stroke="white"/>
<defs>
<filter id="filter0_d_616_3" x="103.053" y="0.215794" width="198.429" height="267.96" filterUnits="userSpaceOnUse" color-interpolation-filters="sRGB">
<feFlood flood-opacity="0" result="BackgroundImageFix"/>
<feColorMatrix in="SourceAlpha" type="matrix" values="0 0 0 0 0 0 0 0 0 0 0 0 0 0 0 0 0 0 127 0" result="hardAlpha"/>
<feOffset dy="19.5303"/>
<feGaussianBlur stdDeviation="19.5303"/>
<feComposite in2="hardAlpha" operator="out"/>
<feColorMatrix type="matrix" values="0 0 0 0 0.210031 0 0 0 0 0.0633751 0 0 0 0 0.65 0 0 0 0.4 0"/>
<feBlend mode="normal" in2="BackgroundImageFix" result="effect1_dropShadow_616_3"/>
<feBlend mode="normal" in="SourceGraphic" in2="effect1_dropShadow_616_3" result="shape"/>
</filter>
<filter id="filter1_d_616_3" x="235.246" y="90.9542" width="138.977" height="164.032" filterUnits="userSpaceOnUse" color-interpolation-filters="sRGB">
<feFlood flood-opacity="0" result="BackgroundImageFix"/>
<feColorMatrix in="SourceAlpha" type="matrix" values="0 0 0 0 0 0 0 0 0 0 0 0 0 0 0 0 0 0 127 0" result="hardAlpha"/>
<feOffset dy="12.4269"/>
<feGaussianBlur stdDeviation="12.4269"/>
<feComposite in2="hardAlpha" operator="out"/>
<feColorMatrix type="matrix" values="0 0 0 0 0.210031 0 0 0 0 0.0633751 0 0 0 0 0.65 0 0 0 0.4 0"/>
<feBlend mode="normal" in2="BackgroundImageFix" result="effect1_dropShadow_616_3"/>
<feBlend mode="normal" in="SourceGraphic" in2="effect1_dropShadow_616_3" result="shape"/>
</filter>
<filter id="filter2_d_616_3" x="19.3869" y="90.9542" width="138.977" height="164.032" filterUnits="userSpaceOnUse" color-interpolation-filters="sRGB">
<feFlood flood-opacity="0" result="BackgroundImageFix"/>
<feColorMatrix in="SourceAlpha" type="matrix" values="0 0 0 0 0 0 0 0 0 0 0 0 0 0 0 0 0 0 127 0" result="hardAlpha"/>
<feOffset dy="12.4269"/>
<feGaussianBlur stdDeviation="12.4269"/>
<feComposite in2="hardAlpha" operator="out"/>
<feColorMatrix type="matrix" values="0 0 0 0 0.210031 0 0 0 0 0.0633751 0 0 0 0 0.65 0 0 0 0.4 0"/>
<feBlend mode="normal" in2="BackgroundImageFix" result="effect1_dropShadow_616_3"/>
<feBlend mode="normal" in="SourceGraphic" in2="effect1_dropShadow_616_3" result="shape"/>
</filter>
</defs>
</svg>
