<svg id="visual" viewBox="0 0 540 960" width="540" height="960" xmlns="http://www.w3.org/2000/svg" xmlns:xlink="http://www.w3.org/1999/xlink" version="1.1"><path d="M0 116L54 116L54 135L108 135L108 174L162 174L162 126L216 126L216 145L270 145L270 145L324 145L324 164L378 164L378 145L432 145L432 183L486 183L486 116L540 116L540 135L540 0L540 0L486 0L486 0L432 0L432 0L378 0L378 0L324 0L324 0L270 0L270 0L216 0L216 0L162 0L162 0L108 0L108 0L54 0L54 0L0 0Z" fill="#ec9c96"></path><path d="M0 433L54 433L54 510L108 510L108 481L162 481L162 452L216 452L216 404L270 404L270 308L324 308L324 462L378 462L378 327L432 327L432 414L486 414L486 471L540 471L540 318L540 133L540 114L486 114L486 181L432 181L432 143L378 143L378 162L324 162L324 143L270 143L270 143L216 143L216 124L162 124L162 172L108 172L108 133L54 133L54 114L0 114Z" fill="#d17485"></path><path d="M0 721L54 721L54 673L108 673L108 673L162 673L162 654L216 654L216 711L270 711L270 635L324 635L324 673L378 673L378 692L432 692L432 625L486 625L486 721L540 721L540 683L540 316L540 469L486 469L486 412L432 412L432 325L378 325L378 460L324 460L324 306L270 306L270 402L216 402L216 450L162 450L162 479L108 479L108 508L54 508L54 431L0 431Z" fill="#af4e7a"></path><path d="M0 875L54 875L54 855L108 855L108 846L162 846L162 855L216 855L216 817L270 817L270 827L324 827L324 894L378 894L378 817L432 817L432 836L486 836L486 817L540 817L540 875L540 681L540 719L486 719L486 623L432 623L432 690L378 690L378 671L324 671L324 633L270 633L270 709L216 709L216 652L162 652L162 671L108 671L108 671L54 671L54 719L0 719Z" fill="#862e73"></path><path d="M0 961L54 961L54 961L108 961L108 961L162 961L162 961L216 961L216 961L270 961L270 961L324 961L324 961L378 961L378 961L432 961L432 961L486 961L486 961L540 961L540 961L540 873L540 815L486 815L486 834L432 834L432 815L378 815L378 892L324 892L324 825L270 825L270 815L216 815L216 853L162 853L162 844L108 844L108 853L54 853L54 873L0 873Z" fill="#53166d"></path></svg>