<svg id="visual" viewBox="0 0 900 600" width="900" height="600" xmlns="http://www.w3.org/2000/svg" xmlns:xlink="http://www.w3.org/1999/xlink" version="1.1"><rect x="0" y="0" width="100%" height="100#" fill="#ffffff"></rect><path d="M0 363L21.5 364.8C43 366.7 86 370.3 128.8 375.2C171.7 380 214.3 386 257.2 382.8C300 379.7 343 367.3 385.8 376.3C428.7 385.3 471.3 415.7 514.2 423.8C557 432 600 418 642.8 408.3C685.7 398.7 728.3 393.3 771.2 398C814 402.7 857 417.3 878.5 424.7L900 432L900 601L878.5 601C857 601 814 601 771.2 601C728.3 601 685.7 601 642.8 601C600 601 557 601 514.2 601C471.3 601 428.7 601 385.8 601C343 601 300 601 257.2 601C214.3 601 171.7 601 128.8 601C86 601 43 601 21.5 601L0 601Z" fill="#fa7268"></path><path d="M0 402L21.5 400.8C43 399.7 86 397.3 128.8 403C171.7 408.7 214.3 422.3 257.2 429.3C300 436.3 343 436.7 385.8 430.7C428.7 424.7 471.3 412.3 514.2 414.8C557 417.3 600 434.7 642.8 445.7C685.7 456.7 728.3 461.3 771.2 458.2C814 455 857 444 878.5 438.5L900 433L900 601L878.5 601C857 601 814 601 771.2 601C728.3 601 685.7 601 642.8 601C600 601 557 601 514.2 601C471.3 601 428.7 601 385.8 601C343 601 300 601 257.2 601C214.3 601 171.7 601 128.8 601C86 601 43 601 21.5 601L0 601Z" fill="#ef5f67"></path><path d="M0 511L21.5 504.2C43 497.3 86 483.7 128.8 474.2C171.7 464.7 214.3 459.3 257.2 462.7C300 466 343 478 385.8 483.7C428.7 489.3 471.3 488.7 514.2 486.5C557 484.3 600 480.7 642.8 472.2C685.7 463.7 728.3 450.3 771.2 452.5C814 454.7 857 472.3 878.5 481.2L900 490L900 601L878.5 601C857 601 814 601 771.2 601C728.3 601 685.7 601 642.8 601C600 601 557 601 514.2 601C471.3 601 428.7 601 385.8 601C343 601 300 601 257.2 601C214.3 601 171.7 601 128.8 601C86 601 43 601 21.5 601L0 601Z" fill="#e34c67"></path><path d="M0 485L21.5 488C43 491 86 497 128.8 503.8C171.7 510.7 214.3 518.3 257.2 524.8C300 531.3 343 536.7 385.8 532.8C428.7 529 471.3 516 514.2 513.2C557 510.3 600 517.7 642.8 515.5C685.7 513.3 728.3 501.7 771.2 503.2C814 504.7 857 519.3 878.5 526.7L900 534L900 601L878.5 601C857 601 814 601 771.2 601C728.3 601 685.7 601 642.8 601C600 601 557 601 514.2 601C471.3 601 428.7 601 385.8 601C343 601 300 601 257.2 601C214.3 601 171.7 601 128.8 601C86 601 43 601 21.5 601L0 601Z" fill="#d53867"></path><path d="M0 570L21.5 565.3C43 560.7 86 551.3 128.8 551.3C171.7 551.3 214.3 560.7 257.2 563C300 565.3 343 560.7 385.8 559.7C428.7 558.7 471.3 561.3 514.2 557C557 552.7 600 541.3 642.8 542.7C685.7 544 728.3 558 771.2 564.7C814 571.3 857 570.7 878.5 570.3L900 570L900 601L878.5 601C857 601 814 601 771.2 601C728.3 601 685.7 601 642.8 601C600 601 557 601 514.2 601C471.3 601 428.7 601 385.8 601C343 601 300 601 257.2 601C214.3 601 171.7 601 128.8 601C86 601 43 601 21.5 601L0 601Z" fill="#c62368"></path></svg>